<svg width="32" height="32" viewBox="0 0 32 32" fill="none" xmlns="http://www.w3.org/2000/svg">
<path d="M16 2C23.72 2 30 8.28 30 16C30 23.72 23.72 30 16 30C8.28 30 2 23.72 2 16C2 8.28 8.28 2 16 2ZM16 0C7.16 0 0 7.16 0 16C0 24.84 7.16 32 16 32C24.84 32 32 24.84 32 16C32 7.16 24.84 0 16 0Z" fill="#035EA1"/>
<path d="M24 25C23.45 25 23 24.55 23 24C23 20.69 19.86 18 16 18C12.14 18 9 20.69 9 24C9 24.55 8.55 25 8 25C7.45 25 7 24.55 7 24C7 19.59 11.04 16 16 16C20.96 16 25 19.59 25 24C25 24.55 24.55 25 24 25Z" fill="#035EA1"/>
<path d="M16 7C17.65 7 19 8.35 19 10C19 11.65 17.65 13 16 13C14.35 13 13 11.65 13 10C13 8.35 14.35 7 16 7ZM16 5C13.24 5 11 7.24 11 10C11 12.76 13.24 15 16 15C18.76 15 21 12.76 21 10C21 7.24 18.76 5 16 5Z" fill="#035EA1"/>
</svg>
